# xmcd
#
# Track frame offsets: 
#        150
#        13684
#        25832
#        42617
#        56632
#        72360
#        83807
#        97050
#        107887
#        124497
#        136657
#
# Disc length: 1988 seconds
#
# Revision: 5
# Processed by: cddbd v1.5.2PL0 Copyright (c) Steve Scherf et al.
# Submitted via: ExactAudioCopy v0.99pb4
#
DISCID=9b07c20b
DTITLE=Brooks and Dunn - It Won't Be Christmas Without You
DYEAR=2002
DGENRE=Country
TTITLE0=Winter Wonderland
TTITLE1=Hangin' 'Round The Mistletoe
TTITLE2=It Won't Be Christmas Without You
TTITLE3=Rockin' Little Christmas
TTITLE4=Blue Christmas
TTITLE5=Santa's Coming Over To Your House
TTITLE6=The Christmas Song
TTITLE7=Santa Claus Is Comin' To Town
TTITLE8=Who Says There Ain't No Santa
TTITLE9=I'll Be Home For Christmas
TTITLE10=White Christmas
EXTD=YEAR: 2002
EXTT0=
EXTT1=
EXTT2=
EXTT3=
EXTT4=
EXTT5=
EXTT6=
EXTT7=
EXTT8=
EXTT9=
EXTT10=
PLAYORDER=
